<svg xmlns="http://www.w3.org/2000/svg" viewBox="0 0 880 447" width="880" height="447" preserveAspectRatio="none" role="img" aria-label="customs:Third_Floor:area traversable navigation mask"><metadata data-mask-method="navigation-grid-rle" data-grid-columns="880" data-grid-rows="447" data-walkable-cells="650" data-run-count="42" data-source="customs:Third_Floor:area"/><path fill="#b7f0c0" fill-opacity=".58" pointer-events="none" d="M427 370H429V371H427ZM427 371H435V372H427ZM424 372H435V373H424ZM424 373H436V374H424ZM423 374H437V375H423ZM423 375H437V376H423ZM423 376H437V377H423ZM423 377H437V378H423ZM423 378H437V379H423ZM423 379H437V380H423ZM423 380H437V381H423ZM422 381H436V382H422ZM422 382H436V383H422ZM422 383H436V384H422ZM422 384H436V385H422ZM422 385H436V386H422ZM422 386H435V387H422ZM422 387H436V388H422ZM422 388H435V389H422ZM421 389H435V390H421ZM421 390H435V391H421ZM411 391H415V392H411ZM421 391H435V392H421ZM410 392H435V393H410ZM410 393H435V394H410ZM410 394H435V395H410ZM410 395H434V396H410ZM410 396H434V397H410ZM410 397H434V398H410ZM410 398H434V399H410ZM409 399H434V400H409ZM409 400H434V401H409ZM409 401H421V402H409ZM423 401H434V402H423ZM409 402H421V403H409ZM425 402H434V403H425ZM409 403H434V404H409ZM409 404H433V405H409ZM414 405H433V406H414ZM422 406H433V407H422ZM422 407H433V408H422ZM422 408H430V409H422Z"/></svg>
